<svg xmlns="http://www.w3.org/2000/svg" width="40" height="39.216" viewBox="0 0 40 39.216">
  <g id="Group_1028" data-name="Group 1028" transform="translate(-534 -798)">
    <g id="Product_filled" data-name="Product filled" transform="translate(127 582)">
      <g id="Ellipse_53" data-name="Ellipse 53" transform="translate(407 216)" fill="#fff" stroke="#707070" stroke-width="1">
        <ellipse cx="20" cy="19.608" rx="20" ry="19.608" stroke="none"/>
        <ellipse cx="20" cy="19.608" rx="19.5" ry="19.108" fill="none"/>
      </g>
    </g>
    <path id="Path_462" data-name="Path 462" d="M512.663,222.145h-4.388a4.022,4.022,0,0,1-4.147-4.136q0-4.413,0-8.826a4.022,4.022,0,0,1,4.111-4.1q4.412,0,8.824,0a4.022,4.022,0,0,1,4.124,4.136q0,4.4,0,8.8a4.02,4.02,0,0,1-4.135,4.124Q514.858,222.147,512.663,222.145Zm7.387-8.513q0-2.242,0-4.485a2.876,2.876,0,0,0-2.933-2.928q-4.448,0-8.9,0a2.875,2.875,0,0,0-2.957,2.952q0,4.449,0,8.9a2.875,2.875,0,0,0,2.945,2.939q4.424,0,8.848,0a2.874,2.874,0,0,0,2.992-2.987Q520.052,215.826,520.051,213.632Z" transform="translate(41.34 604.383)" fill="#707070"/>
    <path id="Path_464" data-name="Path 464" d="M656.735,331.547c-.1-.009-.159-.012-.221-.02a.557.557,0,0,1-.494-.551.53.53,0,0,1,.458-.553,5.065,5.065,0,0,1,.927,0c.3.028.468.27.468.617q0,2.325,0,4.65c0,.533,0,1.065,0,1.6a.571.571,0,1,1-1.136,0q0-2.706,0-5.413Z" transform="translate(-103.307 485.041)" fill="#707070"/>
    <path id="Path_465" data-name="Path 465" d="M667.792,283.582a.771.771,0,0,1-.76-.759.759.759,0,0,1,1.518,0A.771.771,0,0,1,667.792,283.582Z" transform="translate(-113.795 531.066)" fill="#707070"/>
  </g>
</svg>
