<svg xmlns="http://www.w3.org/2000/svg" width="42.693" height="35.577" viewBox="0 0 42.693 35.577"><defs><style>.a{fill:#434552;}</style></defs><g transform="translate(0 0)"><circle class="a" cx="8.894" cy="8.894" r="8.894" transform="translate(12.452 10.673)"/><path class="a" d="M39.135,48H33.494a2.654,2.654,0,0,1-1.887-.782L28.354,43.97a4.419,4.419,0,0,0-3.145-1.3H17.484a4.419,4.419,0,0,0-3.145,1.3l-3.252,3.252A2.654,2.654,0,0,1,9.2,48H3.558A3.561,3.561,0,0,0,0,51.561V74.687a3.561,3.561,0,0,0,3.558,3.558H39.136a3.561,3.561,0,0,0,3.558-3.558V51.561A3.561,3.561,0,0,0,39.135,48Zm-17.789,24.9A10.673,10.673,0,1,1,32.02,62.235,10.685,10.685,0,0,1,21.347,72.908ZM35.578,56.9a1.779,1.779,0,1,1,1.779-1.779A1.781,1.781,0,0,1,35.578,56.9Z" transform="translate(0 -42.667)"/></g></svg>