<svg xmlns="http://www.w3.org/2000/svg" width="30" height="29.032" viewBox="0 0 30 29.032">
  <g id="Group_724" data-name="Group 724" transform="translate(-1765 -419)">
    <g id="Group_545" data-name="Group 545" transform="translate(227 120)">
      <ellipse id="Ellipse_31" data-name="Ellipse 31" cx="15" cy="14.516" rx="15" ry="14.516" transform="translate(1538 299)" fill="#e0e0e4" opacity="0.263"/>
    </g>
    <g id="download_1_" data-name="download (1)" transform="translate(1772.015 425.015)">
      <g id="Group_721" data-name="Group 721" transform="translate(0 9.793)">
        <g id="Group_720" data-name="Group 720">
          <path id="Path_356" data-name="Path 356" d="M14.75,313v4.335a.625.625,0,0,1-.625.624H1.875a.625.625,0,0,1-.625-.624V313H0v4.335a1.875,1.875,0,0,0,1.875,1.871h12.25A1.875,1.875,0,0,0,16,317.335V313Z" transform="translate(0 -313)" fill="#2babde"/>
        </g>
      </g>
      <g id="Group_723" data-name="Group 723" transform="translate(4.123)">
        <g id="Group_722" data-name="Group 722">
          <path id="Path_357" data-name="Path 357" d="M138.587,7.352l-2.37,2.371V0h-1.248V9.723L132.6,7.352l-.882.882,3.877,3.877,3.877-3.877Z" transform="translate(-131.716)" fill="#2babde"/>
        </g>
      </g>
    </g>
  </g>
</svg>
