<svg xmlns="http://www.w3.org/2000/svg" width="40" height="39.216" viewBox="0 0 40 39.216">
  <g id="Group_996" data-name="Group 996" transform="translate(-1075 -216)">
    <g id="product_image" data-name="product image" transform="translate(382)">
      <g id="Ellipse_54" data-name="Ellipse 54" transform="translate(693 216)" fill="#fff" stroke="#707070" stroke-width="1">
        <ellipse cx="20" cy="19.608" rx="20" ry="19.608" stroke="none"/>
        <ellipse cx="20" cy="19.608" rx="19.5" ry="19.108" fill="none"/>
      </g>
    </g>
    <path id="Path_430" data-name="Path 430" d="M175.384,141.723c0,.968-.012,1.936,0,2.9a2.729,2.729,0,0,1-.821,2.059q-4.925,4.983-9.836,9.98a2.327,2.327,0,0,1-3.59.024q-3.205-3.19-6.394-6.4a2.321,2.321,0,0,1-.049-3.473q4.674-4.915,9.358-9.821a2.66,2.66,0,0,1,2.038-.863c2.252.007,4.5,0,6.755.005a2.37,2.37,0,0,1,2.531,2.511c.007.521,0,1.042,0,1.563Q175.385,140.97,175.384,141.723Zm-5.92-4.017c-1.1,0-2.2.011-3.294-.005a1.3,1.3,0,0,0-1.037.431q-4.593,4.841-9.2,9.669c-.518.544-.517.909,0,1.43q3.159,3.159,6.325,6.31c.53.528.9.53,1.425-.005q4.873-4.958,9.741-9.921a1.267,1.267,0,0,0,.389-.947c-.009-1.973,0-3.946-.006-5.919,0-.758-.288-1.038-1.054-1.041C171.661,137.7,170.562,137.707,169.464,137.707Z" transform="translate(930.06 88.863)" fill="#707070"/>
    <path id="Path_431" data-name="Path 431" d="M281.864,165.992a2.239,2.239,0,0,1-2.216,2.254,2.372,2.372,0,0,1-2.359-2.335,2.2,2.2,0,0,1,2.251-2.262A2.305,2.305,0,0,1,281.864,165.992Zm-1.518-.035a.859.859,0,0,0-.8-.784.707.707,0,0,0-.689.727.815.815,0,0,0,.8.776A.7.7,0,0,0,280.347,165.957Z" transform="translate(820.493 64.425)" fill="#707070"/>
  </g>
</svg>
