<svg xmlns="http://www.w3.org/2000/svg" width="15.297" height="15.22" viewBox="0 0 15.297 15.22"><defs><style>.a{fill:#2babde;}</style></defs><g transform="translate(0 -0.261)"><path class="a" d="M14.1,47.224a.38.38,0,0,0-.381.38v3.375a1.142,1.142,0,0,1-1.142,1.141H1.9A1.142,1.142,0,0,1,.761,50.979V41.073A1.142,1.142,0,0,1,1.9,39.932H5.282a.38.38,0,1,0,0-.76H1.9a1.9,1.9,0,0,0-1.9,1.9V50.98a1.9,1.9,0,0,0,1.9,1.9H12.581a1.9,1.9,0,0,0,1.9-1.9V47.6A.38.38,0,0,0,14.1,47.224Zm0,0" transform="translate(0 -37.4)"/><path class="a" d="M118.616.773a1.748,1.748,0,0,0-2.472,0l-6.93,6.93a.388.388,0,0,0-.1.171l-.911,3.29a.388.388,0,0,0,.478.478l3.29-.911a.388.388,0,0,0,.171-.1l6.93-6.93a1.75,1.75,0,0,0,0-2.472Zm-8.555,7.182,5.671-5.672,1.829,1.829L111.89,9.784Zm-.365.733,1.461,1.461-2.021.56Zm8.827-5.537-.412.412-1.829-1.829.412-.412a.971.971,0,0,1,1.373,0l.456.456A.972.972,0,0,1,118.523,3.151Zm0,0" transform="translate(-104.287 0)"/></g></svg>