<svg xmlns="http://www.w3.org/2000/svg" xmlns:xlink="http://www.w3.org/1999/xlink" width="365.02" height="252.629" viewBox="0 0 365.02 252.629"><defs><style>.a{opacity:0.8;}.b{fill:url(#a);}.c{fill:#fff;}.d{fill:#64ffda;}.e{opacity:0.7;}.f{opacity:0.6;}.g{opacity:0.5;}.h{opacity:0.4;}.i{opacity:0.3;}.j{fill:#00c987;}.k{fill:#f5f5f5;}.l{fill:#ff5252;}.m{fill:#ff0;}.n{fill:#69f0ae;}.o{fill:url(#f);}.p{fill:#e0e0e0;}.q{fill:none;stroke:#3ad29f;stroke-miterlimit:10;stroke-width:2px;stroke-dasharray:12;}.r{fill:#d1d1d1;}.s{fill:#e4e4e4;}.t{fill:#3f3d56;}.u{fill:#bebebe;font-size:57px;font-family:Helvetica-Bold, Helvetica;font-weight:700;}</style><linearGradient id="a" x1="0.5" y1="1" x2="0.5" gradientUnits="objectBoundingBox"><stop offset="0" stop-color="gray" stop-opacity="0.251"/><stop offset="0.54" stop-color="gray" stop-opacity="0.122"/><stop offset="1" stop-color="gray" stop-opacity="0.102"/></linearGradient><linearGradient id="f" xlink:href="#a"/></defs><g transform="translate(-867.851 -334)"><g transform="translate(957.13 334)"><g class="a" transform="translate(144.875)"><rect class="b" width="130.866" height="146.06"/></g><rect class="c" width="126.539" height="45.36" transform="translate(147.037 97.519)"/><rect class="d" width="4.903" height="23.244" transform="translate(157.424 108.278)"/><g class="e" transform="translate(167.104 108.278)"><rect class="d" width="4.903" height="23.244"/></g><g class="f" transform="translate(176.786 108.278)"><rect class="d" width="4.903" height="23.244"/></g><g class="g" transform="translate(186.466 108.278)"><rect class="d" width="4.903" height="23.244"/></g><g class="g" transform="translate(196.146 108.278)"><rect class="d" width="4.903" height="23.244"/></g><g class="h" transform="translate(205.825 108.278)"><rect class="d" width="4.903" height="23.244"/></g><g class="i" transform="translate(215.508 108.278)"><rect class="d" width="4.903" height="23.244"/></g><circle class="j" cx="11.832" cy="11.832" r="11.832" transform="translate(243.83 107.918)"/><rect class="c" width="126.539" height="45.36" transform="translate(147.037 50.391)"/><rect class="d" width="4.903" height="23.244" transform="translate(157.424 61.15)"/><g class="e" transform="translate(167.104 61.15)"><rect class="d" width="4.903" height="23.244"/></g><g class="f" transform="translate(176.786 61.15)"><rect class="d" width="4.903" height="23.244"/></g><g class="g" transform="translate(186.466 61.15)"><rect class="d" width="4.903" height="23.244"/></g><g class="g" transform="translate(196.146 61.15)"><rect class="d" width="4.903" height="23.244"/></g><g class="h" transform="translate(205.825 61.15)"><rect class="d" width="4.903" height="23.244"/></g><g class="i" transform="translate(215.508 61.15)"><rect class="d" width="4.903" height="23.244"/></g><circle class="j" cx="11.832" cy="11.832" r="11.832" transform="translate(243.83 60.794)"/><rect class="c" width="126.539" height="45.36" transform="translate(147.037 3.264)"/><rect class="d" width="4.903" height="23.244" transform="translate(157.424 14.026)"/><g class="e" transform="translate(167.104 14.026)"><rect class="d" width="4.903" height="23.244"/></g><g class="f" transform="translate(176.786 14.026)"><rect class="d" width="4.903" height="23.244"/></g><g class="g" transform="translate(186.466 14.026)"><rect class="d" width="4.903" height="23.244"/></g><g class="g" transform="translate(196.146 14.026)"><rect class="d" width="4.903" height="23.244"/></g><g class="h" transform="translate(205.825 14.026)"><rect class="d" width="4.903" height="23.244"/></g><g class="i" transform="translate(215.508 14.026)"><rect class="d" width="4.903" height="23.244"/></g><circle class="b" cx="12.755" cy="12.755" r="12.755" transform="translate(242.907 12.743)"/><circle class="b" cx="12.755" cy="12.755" r="12.755" transform="translate(242.907 60.186)"/><circle class="b" cx="12.755" cy="12.755" r="12.755" transform="translate(242.907 107.31)"/><circle class="j" cx="11.832" cy="11.832" r="11.832" transform="translate(243.83 13.666)"/><g class="a" transform="translate(10.529 104.562)"><path class="b" d="M375.214,535.049H200.07V423.231A5.031,5.031,0,0,1,205.1,418.2H370.18a5.031,5.031,0,0,1,5.031,5.031Z" transform="translate(-200.07 -418.2)"/></g><path class="c" d="M45.681,334.85H205.936a5.031,5.031,0,0,1,5.031,5.031V449.643H40.65V339.881a5.031,5.031,0,0,1,5.031-5.031Z" transform="translate(-27.707 -228.231)"/><rect class="k" width="159.351" height="104.517" transform="translate(18.426 113.296)"/><rect class="k" width="158.676" height="4.996" transform="translate(19.037 113.376)"/><circle class="l" cx="1.21" cy="1.21" r="1.21" transform="translate(21.228 114.586)"/><circle class="m" cx="1.21" cy="1.21" r="1.21" transform="translate(24.559 114.586)"/><circle class="n" cx="1.21" cy="1.21" r="1.21" transform="translate(27.892 114.586)"/><g class="a" transform="translate(0 210.372)"><path class="o" d="M357.573,769.06c-9.75.739-177.181.443-183.034,0-7.67-3.7-7.54-18.038-7.54-18.038l76.784-.513.258,4.365h32.872l1.274-3.853h85.1S364.983,764.182,357.573,769.06Z" transform="translate(-167 -750.51)"/></g><path class="k" d="M364.518,755.75H281.076a2.547,2.547,0,0,1-1.945,4.238H247.29a2.547,2.547,0,0,1-1.945-4.238H170.63s-.127,12.456,7.448,15.666c5.779.385,171.164.637,180.792,0C366.19,767.178,364.518,755.75,364.518,755.75Z" transform="translate(-169.474 -543.709)"/><circle class="p" cx="1.028" cy="1.028" r="1.028" transform="translate(17.461 213.706)"/><circle class="p" cx="1.028" cy="1.028" r="1.028" transform="translate(20.543 213.706)"/><circle class="p" cx="1.028" cy="1.028" r="1.028" transform="translate(23.626 213.706)"/><path class="q" d="M239,165.29V99.38h54.448" transform="translate(-162.901 -67.737)"/><path class="q" d="M186,102.29V36.38h54.448" transform="translate(-126.776 -24.796)"/><path class="q" d="M654.657,477.38v51.582H626" transform="translate(-426.677 -325.378)"/><path class="q" d="M708.657,513.38v51.582H680" transform="translate(-463.483 -349.916)"/></g><ellipse class="r" cx="61.758" cy="8.402" rx="61.758" ry="8.402" transform="translate(867.851 569.825)"/><circle class="s" cx="28.699" cy="28.699" r="28.699" transform="translate(903.089 510.475)"/><rect class="s" width="8.719" height="15.621" transform="translate(918.711 561.698)"/><rect class="s" width="8.719" height="15.621" transform="translate(936.148 561.698)"/><ellipse class="s" cx="7.266" cy="2.725" rx="7.266" ry="2.725" transform="translate(918.711 574.776)"/><ellipse class="s" cx="7.266" cy="2.725" rx="7.266" ry="2.725" transform="translate(936.148 574.413)"/><ellipse class="c" cx="9.809" cy="9.809" rx="9.809" ry="9.809" transform="translate(922.707 522.1)"/><circle class="t" cx="3.27" cy="3.27" r="3.27" transform="translate(929.246 528.639)"/><path class="j" d="M270.624,522.986c-2.317-10.378,5.09-20.865,16.545-23.422s22.62,3.782,24.937,14.16-5.274,14.206-16.729,16.763S272.941,533.365,270.624,522.986Z" transform="translate(633.326 -10.501)"/><ellipse class="s" cx="14.35" cy="4.505" rx="14.35" ry="4.505" transform="translate(941.968 530.813) rotate(-23.171)"/><ellipse class="s" cx="14.35" cy="4.505" rx="14.35" ry="4.505" transform="translate(888.203 550.067) rotate(-23.171)"/><path class="c" d="M339.879,658.018c0,2.809-7.232,8.355-15.258,8.355S309,661.19,309,658.381s7.6-2.18,15.621-2.18S339.879,655.209,339.879,658.018Z" transform="translate(608.621 -110.488)"/><text class="u" transform="translate(1057 519)"><tspan x="-47.551" y="0">500</tspan></text></g></svg>