<svg xmlns="http://www.w3.org/2000/svg" xmlns:xlink="http://www.w3.org/1999/xlink" width="643.395" height="387.638" viewBox="0 0 643.395 387.638"><defs><style>.a{fill:#eeeef0;fill-rule:evenodd;opacity:0.567;}.b{fill:#ffd8bf;}.c{fill:#ffe3d1;}.d{fill:url(#a);}.e,.f,.i{fill:none;stroke-miterlimit:10;}.e{stroke:#ffb88c;}.f{stroke:#f5b690;}.g{fill:#695c45;}.h{fill:#33302e;}.i{stroke:#ffc8a6;}.j{fill:url(#b);}.k{fill:#fff;}.l{fill:#ff4e45;}.m{fill:#ffada8;}.n{fill:#fff6a3;}.o{fill:#7395ff;font-size:13px;font-family:Helvetica;}.p{filter:url(#g);}.q{filter:url(#e);}.r{filter:url(#c);}</style><linearGradient id="a" x1="0.294" y1="0.5" x2="0.098" y2="0.5" gradientUnits="objectBoundingBox"><stop offset="0" stop-color="#ff8438"/><stop offset="0.354" stop-color="#f97e31"/><stop offset="0.828" stop-color="#ea6d20"/><stop offset="1" stop-color="#e36619"/></linearGradient><linearGradient id="b" x1="0.587" y1="0.542" x2="1.854" y2="0.314" gradientUnits="objectBoundingBox"><stop offset="0" stop-color="#ff8438"/><stop offset="0.933" stop-color="#e5681b"/><stop offset="1" stop-color="#e36619"/></linearGradient><filter id="c" x="101.121" y="193.653" width="151.035" height="173.503" filterUnits="userSpaceOnUse"><feOffset dy="3" input="SourceAlpha"/><feGaussianBlur stdDeviation="3" result="d"/><feFlood flood-opacity="0.161"/><feComposite operator="in" in2="d"/><feComposite in="SourceGraphic"/></filter><filter id="e" x="246.394" y="114.439" width="154.592" height="255.636" filterUnits="userSpaceOnUse"><feOffset dy="3" input="SourceAlpha"/><feGaussianBlur stdDeviation="3" result="f"/><feFlood flood-opacity="0.161"/><feComposite operator="in" in2="f"/><feComposite in="SourceGraphic"/></filter><filter id="g" x="395.896" y="193.653" width="151.033" height="173.503" filterUnits="userSpaceOnUse"><feOffset dy="3" input="SourceAlpha"/><feGaussianBlur stdDeviation="3" result="h"/><feFlood flood-opacity="0.161"/><feComposite operator="in" in2="h"/><feComposite in="SourceGraphic"/></filter></defs><g transform="translate(-774.099 -196.171)"><path class="a" d="M177.575,323.553H120.727A55.79,55.79,0,0,0,65.1,379.18h0a55.792,55.792,0,0,0,55.628,55.629H618.416c49.543,0,90.078-40.536,90.078-90.079h0c0-49.542-40.535-90.078-90.076-90.078h0a38.2,38.2,0,0,1-38.086-38.087h0a38.2,38.2,0,0,1,38.088-38.086h17.621a39.716,39.716,0,0,0,39.6-39.6h0a39.715,39.715,0,0,0-39.6-39.6H557.1A15.46,15.46,0,0,1,541.68,83.867h0A15.46,15.46,0,0,1,557.1,68.45h10.216a10.67,10.67,0,0,0,10.639-10.639h0a10.67,10.67,0,0,0-10.639-10.639H526.178c-14.119,0-15.694,16.681-51.36,16.681h-139a13.925,13.925,0,0,0-13.883,13.883h0A13.925,13.925,0,0,0,335.82,91.619h13.333a20.176,20.176,0,0,1,20.116,20.115h0a20.176,20.176,0,0,1-20.116,20.116H329.09c-54.184,0-61.837,14.16-71.326,42.323s-58.776,30.433-58.776,30.433H168.505a30.405,30.405,0,0,0-30.315,30.315h0a30.4,30.4,0,0,0,30.315,30.314h9.07a29.244,29.244,0,0,1,29.158,29.159h0a29.244,29.244,0,0,1-29.158,29.158ZM597.17,68.45a10.639,10.639,0,1,1,10.64-10.639A10.64,10.64,0,0,1,597.17,68.45Z" transform="translate(709 149)"/><g transform="translate(729.007 188.819)"><g transform="translate(155.214 81.181)"><g transform="translate(159.428 82.054)"><path class="b" d="M270.259,208.417l1.719,22.785h-18.4l-1.992-22.02Z" transform="translate(-194.741 -100.368)"/><path class="c" d="M275.065,159.25l-3.647-17.614a7.3,7.3,0,0,0-8.854-5.317L241.3,141.625a7.3,7.3,0,0,0-5.318,8.853l6.77,20.5-4.781,12.25a5.416,5.416,0,0,1-4.337,3.4l-3.326.436s-2.972,11.3,12.059,16.552c15.379,5.373,20.956-4.593,20.956-4.593l-2.151-2.677a5.419,5.419,0,0,1-.886-5.189l2.192-6.229a23.987,23.987,0,0,0,8.908-1.046C278.508,181.147,277.143,167.575,275.065,159.25Z" transform="translate(-205.37 -136.1)"/><path class="d" d="M241.3,169.409s7.276,16.746,27.539,9.718c0,0,17.478,8.209,22.707,27.323,2.748,10.043,4.88,26.815,4.88,26.815l-29.946,1.747S252.6,259.436,235.289,287.5l-21.75-50.678,6.933-65.071Z" transform="translate(-213.539 -119.642)"/><path class="e" d="M246.417,211.79s18.714-2.547,33.262-2.083" transform="translate(-197.294 -99.758)"/><path class="f" d="M241.222,148a5.079,5.079,0,0,1,3.39-3.78,4.593,4.593,0,0,1,4.146.568" transform="translate(-199.861 -132.215)"/><path class="f" d="M258.639,142.8a5.078,5.078,0,0,0-4.968-1.041,4.625,4.625,0,0,0-3.13,3.294s2.778,8.8,4.369,11.089c2.489,3.572,5.627,2.648,6.35,4.856s-4.314,3.465-4.314,3.465l1.3,3.788s-5.694,1.384-8.472,3.314" transform="translate(-195.635 -133.428)"/><path class="g" d="M256.745,145.444a1.694,1.694,0,1,1-2.137-1.083A1.692,1.692,0,0,1,256.745,145.444Z" transform="translate(-193.824 -132.06)"/><path class="g" d="M248.435,146.912a1.693,1.693,0,1,1-2.137-1.082A1.694,1.694,0,0,1,248.435,146.912Z" transform="translate(-197.929 -131.334)"/><path class="h" d="M240.511,143.22s-.245-4.481-4.629-1.866c-3.756,2.241-8.548,6.939-4.13,17.166,5.479,12.686,11.047,10.27,11.047,10.27a29.406,29.406,0,0,1-1.134-9.694C242.12,154.653,241.9,150.493,240.511,143.22Z" transform="translate(-205.415 -133.908)"/><line class="f" x1="2.366" y2="1.058" transform="translate(60.639 38.137)"/><path class="f" d="M248.9,160.458a7.51,7.51,0,0,1,2.516,3.487" transform="translate(-196.068 -124.064)"/><path class="i" d="M240.311,161.625s5.924,9.907,17.11,10.7" transform="translate(-200.311 -123.488)"/><path class="c" d="M242.292,151.264s-4.795-5.794-8.1-1.43c-2.894,3.819,1.031,10.805,6.877,12.564Z" transform="translate(-203.815 -130.118)"/><path class="f" d="M234.835,152.423c-.03-.722.526-2.57,1.874-2.631,1.654-.076,4.137,2.434,3.755,3.889s-1.856.97-2.111,1.768c-.526,1.646,2.2,2.657,2.2,2.657" transform="translate(-203.017 -129.335)"/><path class="e" d="M228.628,169.8s8.022,25.628,38.1,12.4" transform="translate(-206.084 -119.447)"/><path class="j" d="M252.047,196.94a2.926,2.926,0,0,0-4.638-2.831c-5,3.868-11.083,11.945-16.263,19.662l22.162,17.109c.811-1.4,1.534-2.655,2.14-3.7h0C250.871,213.924,250.964,203.647,252.047,196.94Z" transform="translate(-204.839 -107.736)"/></g><g transform="translate(0 46.61)"><g class="r" transform="matrix(1, 0, 0, 1, -110.12, -120.44)"><path class="k" d="M221.626,165.395v97.439h18.243V291.31H221.626V320.9h-28.92V291.31H109.5l-2.67-29.81,70.076-96.1Zm-28.92,97.439V190.756l-52.724,72.078Z" transform="translate(3.29 34.26)"/></g><g class="q" transform="matrix(1, 0, 0, 1, -110.12, -120.44)"><path class="k" d="M204.065,182.036c0-92.99,136.592-92.767,136.592,0v98.318c0,92.769-136.592,92.99-136.592,0Zm29.142,98.318c0,56.505,78.307,56.505,78.307,0V182.036c0-55.616-78.307-56.283-78.307,0Z" transform="translate(51.33 8.06)"/></g><g class="p" transform="matrix(1, 0, 0, 1, -110.12, -120.44)"><path class="k" d="M418.917,165.395v97.439H437.16V291.31H418.917V320.9H390V291.31H306.8l-2.668-29.81,70.075-96.1ZM390,262.834V190.756l-52.724,72.078Z" transform="translate(100.77 34.26)"/></g></g><g transform="translate(162.219 160.085)"><path class="c" d="M283.514,230.824l-45.189-21.3a4.32,4.32,0,0,1-2.479-3.571,17.01,17.01,0,0,0-4.155-10.082c-4.043-4.49-13.381-7.541-13.381-7.541L215.558,198.8a4.563,4.563,0,0,0,1.638,4.787,12.237,12.237,0,0,1,4.107,4.981c1.5,3.961,1.421,10.214,9.123,11.3l43.6,29.568a10.47,10.47,0,0,0,15.182-5.315A10.728,10.728,0,0,0,283.514,230.824Z" transform="translate(-215.407 -188.326)"/><path class="i" d="M216.645,190.228s8.591,2.583,12.086,7.62" transform="translate(-214.796 -187.386)"/><path class="i" d="M216.1,192.668s7.245,1.759,9.713,7.426" transform="translate(-215.064 -186.181)"/><path class="i" d="M215.6,194.989s6,1.672,7.928,7.173" transform="translate(-215.312 -185.034)"/><line class="i" x1="2.66" y2="2.708" transform="translate(12.727 8.776)"/></g><g transform="translate(181.972 61.019)"><path class="l" d="M231.163,156.966s50.592-12.017,58.008-18.229c3.619-3.032-18.832,1.437-18.832,1.437l-8.3-18.153s-25.96.013-32.184,13.522C226.466,142.907,231.163,156.966,231.163,156.966Z" transform="translate(-228.628 -122.021)"/><path class="m" d="M239.589,132.423c-2.918,5.468,2.2,17.309,2.2,17.309l23.583-9.558-8.3-18.153S244.009,124.138,239.589,132.423Z" transform="translate(-223.657 -122.021)"/></g><g transform="translate(256.356)"><path class="n" d="M334.277,81.181H292.154a13.74,13.74,0,0,0-13.741,13.741v23.913a13.741,13.741,0,0,0,13.741,13.741H303.49a3.657,3.657,0,0,1,3.118,5.591c-1.318,2.048-3.673,3.708-7.793,4a1.18,1.18,0,0,0-.68,2.059c5.014,4.307,17.23,4.428,20.176-8.8a3.719,3.719,0,0,1,3.659-2.846h12.307a13.742,13.742,0,0,0,13.741-13.741V94.922A13.741,13.741,0,0,0,334.277,81.181Z" transform="translate(-278.413 -81.181)"/><text class="o" transform="translate(33.391 20.673)"><tspan x="-20.95" y="0">Where </tspan><tspan x="-15.895" y="16">am i?</tspan></text></g></g></g></g></svg>