<svg xmlns="http://www.w3.org/2000/svg" width="40" height="39.216" viewBox="0 0 40 39.216">
  <g id="location" transform="translate(-622 -868)">
    <g id="Group_1234" data-name="Group 1234" transform="translate(0 65)">
      <g id="Group_1217" data-name="Group 1217" transform="translate(0 55)">
        <g id="Product_filled" data-name="Product filled" transform="translate(215 532)">
          <g id="Ellipse_53" data-name="Ellipse 53" transform="translate(407 216)" fill="#fff" stroke="#707070" stroke-width="1">
            <ellipse cx="20" cy="19.608" rx="20" ry="19.608" stroke="none"/>
            <ellipse cx="20" cy="19.608" rx="19.5" ry="19.108" fill="none"/>
          </g>
        </g>
      </g>
    </g>
    <g id="location-2" data-name="location" transform="translate(617 -77.361)">
      <path id="Path_1088" data-name="Path 1088" d="M25.223,2a6.018,6.018,0,0,0-5.841,4.458,6.716,6.716,0,0,0-.2,1.785c.01,2.037,1.1,3.788,2.321,5.481a26.326,26.326,0,0,1,3.308,5.157.452.452,0,0,0,.832,0,26.326,26.326,0,0,1,3.308-5.157c1.218-1.693,2.311-3.444,2.321-5.481a6.716,6.716,0,0,0-.2-1.785A6.01,6.01,0,0,0,25.231,2Zm0,.9h.007A5.1,5.1,0,0,1,30.19,6.69a5.827,5.827,0,0,1,.176,1.545c-.008,1.714-.952,3.3-2.144,4.959a34.767,34.767,0,0,0-3,4.486,34.726,34.726,0,0,0-2.991-4.486c-1.193-1.657-2.143-3.245-2.152-4.959a5.827,5.827,0,0,1,.176-1.545A5.107,5.107,0,0,1,25.223,2.9Zm-.014,2.3a2.8,2.8,0,1,0,2.8,2.815A2.827,2.827,0,0,0,25.209,5.2Zm0,.9a1.916,1.916,0,0,1,1.9,1.912,1.891,1.891,0,1,1-1.9-1.912ZM22.423,16.376a.451.451,0,0,0-.078.014A8.048,8.048,0,0,0,19.3,17.674a2.831,2.831,0,0,0-1.3,2.2c0,1.17.929,2.12,2.236,2.765a11.485,11.485,0,0,0,4.987,1.03,11.485,11.485,0,0,0,4.987-1.03c1.307-.646,2.236-1.6,2.236-2.765a2.831,2.831,0,0,0-1.3-2.2A8.048,8.048,0,0,0,28.1,16.39a.452.452,0,1,0-.2.882A7.289,7.289,0,0,1,30.613,18.4a1.922,1.922,0,0,1,.931,1.474c0,.676-.592,1.389-1.735,1.954a10.679,10.679,0,0,1-4.585.938,10.679,10.679,0,0,1-4.585-.938c-1.144-.565-1.735-1.278-1.735-1.954a1.922,1.922,0,0,1,.931-1.474,7.289,7.289,0,0,1,2.709-1.129.452.452,0,1,0-.12-.9Z" transform="translate(0 952.362)" fill="#707070"/>
    </g>
  </g>
</svg>
