<svg xmlns="http://www.w3.org/2000/svg" width="40" height="39.216" viewBox="0 0 40 39.216"><defs><style>.a{fill:#fff;stroke:#707070;}.b{fill:#707070;}.c{stroke:none;}.d{fill:none;}</style></defs><g transform="translate(-407 -216)"><g class="a" transform="translate(407 216)"><ellipse class="c" cx="20" cy="19.608" rx="20" ry="19.608"/><ellipse class="d" cx="20" cy="19.608" rx="19.5" ry="19.108"/></g><g transform="translate(419 197)"><g transform="translate(0 32)"><g transform="translate(0 0)"><path class="b" d="M5.574,32H.507A.507.507,0,0,0,0,32.507v5.067a.507.507,0,0,0,.507.507H5.574a.507.507,0,0,0,.507-.507V32.507A.507.507,0,0,0,5.574,32Zm-.507,5.067H1.013V33.013H5.067Z" transform="translate(0 -32)"/></g></g><g transform="translate(0 40.108)"><g transform="translate(0 0)"><path class="b" d="M5.574,288H.507a.507.507,0,0,0-.507.507v5.067a.507.507,0,0,0,.507.507H5.574a.507.507,0,0,0,.507-.507v-5.067A.507.507,0,0,0,5.574,288Zm-.507,5.067H1.013v-4.054H5.067Z" transform="translate(0 -288)"/></g></g><g transform="translate(8.108 33.557)"><g transform="translate(0 0)"><rect class="b" width="4.153" height="1.038"/></g></g><g transform="translate(8.108 35.634)"><g transform="translate(0 0)"><rect class="b" width="7.959" height="1.038"/></g></g><g transform="translate(8.108 41.517)"><g transform="translate(0 0)"><rect class="b" width="4.153" height="1.038"/></g></g><g transform="translate(8.108 43.593)"><g transform="translate(0 0)"><rect class="b" width="7.959" height="1.038"/></g></g></g></g></svg>