<svg xmlns="http://www.w3.org/2000/svg" width="16.067" height="14.189" viewBox="0 0 16.067 14.189"><defs><style>.a{fill:#3e3e3e;}</style></defs><g transform="translate(0 -32)"><g transform="translate(0 32)"><g transform="translate(0 0)"><path class="a" d="M5.574,32H.507A.507.507,0,0,0,0,32.507v5.067a.507.507,0,0,0,.507.507H5.574a.507.507,0,0,0,.507-.507V32.507A.507.507,0,0,0,5.574,32Zm-.507,5.067H1.013V33.013H5.067Z" transform="translate(0 -32)"/></g></g><g transform="translate(0 40.108)"><g transform="translate(0 0)"><path class="a" d="M5.574,288H.507a.507.507,0,0,0-.507.507v5.067a.507.507,0,0,0,.507.507H5.574a.507.507,0,0,0,.507-.507v-5.067A.507.507,0,0,0,5.574,288Zm-.507,5.067H1.013v-4.054H5.067Z" transform="translate(0 -288)"/></g></g><g transform="translate(8.108 33.557)"><g transform="translate(0 0)"><rect class="a" width="4.153" height="1.038"/></g></g><g transform="translate(8.108 35.634)"><g transform="translate(0 0)"><rect class="a" width="7.959" height="1.038"/></g></g><g transform="translate(8.108 41.517)"><g transform="translate(0 0)"><rect class="a" width="4.153" height="1.038"/></g></g><g transform="translate(8.108 43.593)"><g transform="translate(0 0)"><rect class="a" width="7.959" height="1.038"/></g></g></g></svg>