<svg xmlns="http://www.w3.org/2000/svg" width="40" height="39.216" viewBox="0 0 40 39.216"><defs><style>.a{fill:#fff;stroke:#707070;}.b{fill:#707070;}.c{stroke:none;}.d{fill:none;}</style></defs><g transform="translate(-693 -216)"><g class="a" transform="translate(693 216)"><ellipse class="c" cx="20" cy="19.608" rx="20" ry="19.608"/><ellipse class="d" cx="20" cy="19.608" rx="19.5" ry="19.108"/></g><path class="b" d="M14.827,0H2.118A2.12,2.12,0,0,0,0,2.118V14.827a2.12,2.12,0,0,0,2.118,2.118H14.827a2.12,2.12,0,0,0,2.118-2.118V2.118A2.12,2.12,0,0,0,14.827,0ZM2.118,1.412H14.827a.707.707,0,0,1,.706.706v5L13.208,4.8a.706.706,0,0,0-1,0L7.237,9.769l-1.8-1.8a.706.706,0,0,0-1,0L1.412,11V2.118A.707.707,0,0,1,2.118,1.412ZM14.827,15.533H2.118a.707.707,0,0,1-.706-.706V13l3.53-3.53,4.09,4.09a.706.706,0,1,0,1-1l-1.8-1.8,4.474-4.473,2.824,2.824v5.709A.707.707,0,0,1,14.827,15.533Zm0,0" transform="translate(704.527 227.573)"/></g></svg>