<svg xmlns="http://www.w3.org/2000/svg" width="40" height="39.216" viewBox="0 0 40 39.216">
  <g id="user_pricing_upload_active" data-name="user pricing upload active" transform="translate(-800 -748)">
    <g id="Group_2114" data-name="Group 2114" transform="translate(126)">
      <g id="Group_1214" data-name="Group 1214" transform="translate(-401 532)">
        <g id="product_image" data-name="product image" transform="translate(382)">
          <g id="Ellipse_54" data-name="Ellipse 54" transform="translate(693 216)" fill="#10c28a" stroke="#10c28a" stroke-width="1">
            <ellipse cx="20" cy="19.608" rx="20" ry="19.608" stroke="none"/>
            <ellipse cx="20" cy="19.608" rx="19.5" ry="19.108" fill="none"/>
          </g>
        </g>
      </g>
    </g>
    <g id="KeSVwl" transform="translate(845.773 934.02)">
      <g id="Group_2113" data-name="Group 2113" transform="translate(-44.196 -183.207)">
        <path id="Path_1524" data-name="Path 1524" d="M-10.639-149.617H-44.2v-33.59h33.557Zm-17.116-9.534a5.49,5.49,0,0,0,8.226,1.175,5.28,5.28,0,0,0,1.879-3.966,5.358,5.358,0,0,0-2.518-4.8c.061-.066.11-.123.163-.175.752-.747,1.506-1.493,2.253-2.245a.382.382,0,0,0,.11-.25c-.041-1.064-.092-2.128-.141-3.192q-.035-.776-.069-1.552l-.077-1.747c-.069-.007-.128-.015-.186-.018q-3.145-.139-6.29-.28a.327.327,0,0,0-.272.11q-1.261,1.278-2.528,2.549c-.539.54-1.087,1.071-1.626,1.611q-2.8,2.808-5.6,5.619c-.818.819-1.643,1.631-2.461,2.449a.957.957,0,0,0-.013,1.393q2.762,2.769,5.527,5.533a.963.963,0,0,0,1.418,0q.558-.555,1.112-1.114C-28.486-158.411-28.126-158.776-27.755-159.151Z" transform="translate(44.196 183.207)" fill="none"/>
        <path id="Path_1525" data-name="Path 1525" d="M178.557,47.564c-.371.375-.731.739-1.092,1.1s-.74.744-1.112,1.114a.963.963,0,0,1-1.418,0q-2.766-2.765-5.527-5.533a.957.957,0,0,1,.013-1.393c.818-.818,1.644-1.63,2.461-2.449q2.8-2.807,5.6-5.619c.539-.54,1.087-1.071,1.626-1.611q1.268-1.27,2.528-2.549a.327.327,0,0,1,.272-.11q3.145.143,6.29.28c.059,0,.117.011.186.018l.077,1.747q.034.776.069,1.552c.048,1.064.1,2.128.141,3.192a.382.382,0,0,1-.11.25c-.747.752-1.5,1.5-2.253,2.245-.053.052-.1.109-.163.175a5.358,5.358,0,0,1,2.518,4.8,5.28,5.28,0,0,1-1.879,3.966A5.49,5.49,0,0,1,178.557,47.564Zm9.06-15.989c-.051-.006-.1-.015-.146-.017q-2.645-.12-5.291-.235a.3.3,0,0,0-.2.081q-.907.888-1.8,1.785c-.574.575-1.14,1.158-1.715,1.733q-3.111,3.11-6.225,6.217-1.112,1.112-2.217,2.232c-.153.154-.152.226,0,.381l3.589,3.6,1.819,1.821c.175.175.241.175.418,0l.174-.174c.6-.6,1.186-1.225,1.815-1.8a.6.6,0,0,0,.186-.79,4.886,4.886,0,0,1-.248-2.739,5.483,5.483,0,0,1,7.517-4.132.175.175,0,0,0,.227-.042q1.119-1.13,2.248-2.25a.31.31,0,0,0,.1-.259q-.121-2.651-.237-5.3A1.035,1.035,0,0,0,187.617,31.575Zm.264,13.025a4.7,4.7,0,1,0-4.69,4.7A4.7,4.7,0,0,0,187.882,44.6Z" transform="translate(-162.116 -23.508)" fill="#fff"/>
        <path id="Path_1528" data-name="Path 1528" d="M605.6,90.815a1.717,1.717,0,1,1,1.724-1.716A1.714,1.714,0,0,1,605.6,90.815Zm0-2.645a.93.93,0,0,0-.928.929.931.931,0,0,0,1.862.012A.931.931,0,0,0,605.6,88.17Z" transform="translate(-582.624 -78.505)" fill="#fff"/>
        <path id="Path_1529" data-name="Path 1529" d="M492.914,356.149l3.585,3.59h-2.05v3.088h-3.132v-3.074h-2.007Zm.745,2.8h.905l-1.676-1.68-1.7,1.684h.915v3.08h1.557Z" transform="translate(-471.809 -338.457)" fill="#fff"/>
      </g>
    </g>
  </g>
</svg>
