<svg xmlns="http://www.w3.org/2000/svg" width="37.74" height="37.74" viewBox="0 0 37.74 37.74">
  <g id="user_7_" data-name="user (7)" transform="translate(0 0)">
    <path id="Path_398" data-name="Path 398" d="M19.612,37.725h0A18.87,18.87,0,0,1,.015,19.612h0A18.87,18.87,0,0,1,18.128.015h0a18.87,18.87,0,0,1,19.6,18.113h0A18.87,18.87,0,0,1,19.612,37.725Z" transform="translate(0 0)" fill="#63667a"/>
    <path id="Path_399" data-name="Path 399" d="M94.861,49.078h0a18.856,18.856,0,0,0-9.532-15.665,18.788,18.788,0,0,1,4.532,11.542h0a18.87,18.87,0,0,1-18.113,19.6h0A18.78,18.78,0,0,1,61.683,62.1a18.835,18.835,0,0,0,15.066,6.571h0A18.87,18.87,0,0,0,94.861,49.078Z" transform="translate(-57.136 -30.95)" fill="#63667a"/>
    <circle id="Ellipse_52" data-name="Ellipse 52" cx="4.387" cy="4.387" r="4.387" transform="translate(14.457 8.985)" fill="#fff"/>
    <path id="Path_400" data-name="Path 400" d="M140.745,280.624H122.561a.557.557,0,0,1-.561-.577v-2.829A5.2,5.2,0,0,1,127.214,272h8.879a5.2,5.2,0,0,1,5.22,5.218v2.829A.562.562,0,0,1,140.745,280.624Z" transform="translate(-113.007 -251.951)" fill="#fff"/>
  </g>
</svg>
