<svg xmlns="http://www.w3.org/2000/svg" width="19.759" height="11.526" viewBox="0 0 19.759 11.526"><defs><style>.a{fill:#5bb9e0;}</style></defs><g transform="translate(0 -106.662)"><g transform="translate(0 106.662)"><g transform="translate(0 0)"><path class="a" d="M19.686,112.191c-.156-.226-3.9-5.529-9.806-5.529-5.072,0-9.592,5.272-9.782,5.5a.413.413,0,0,0,0,.532c.19.225,4.71,5.5,9.782,5.5s9.592-5.272,9.782-5.5A.412.412,0,0,0,19.686,112.191ZM9.88,117.365c-4.066,0-7.933-3.878-8.915-4.94.981-1.063,4.843-4.94,8.915-4.94,4.758,0,8.116,3.872,8.936,4.918C17.869,113.431,13.981,117.365,9.88,117.365Z" transform="translate(0 -106.662)"/></g></g><g transform="translate(6.586 109.132)"><g transform="translate(0 0)"><path class="a" d="M173.955,170.662a3.293,3.293,0,1,0,3.293,3.293A3.3,3.3,0,0,0,173.955,170.662Zm0,5.763a2.47,2.47,0,1,1,2.47-2.47A2.473,2.473,0,0,1,173.955,176.425Z" transform="translate(-170.662 -170.662)"/></g></g></g></svg>